# xmcd
#
# Track frame offsets:
#	180
#	20811
#	34343
#	48248
#	62783
#	81437
#	97087
#	111338
#	129638
#	144418
#	165043
#	178473
#	192413
#	206938
#	225540
#	241168
#	255443
#	273476
#
# Disc length: 3841 seconds
#
# Revision: 1
# Processed by: cddbd v1.5.1PL0 Copyright (c) Steve Scherf et al.
# Submitted via: audiograbber 1.83.01
#
DISCID=0a0eff12
DTITLE=V - Pocket Songs Summer Hits '98 - Country Female - PSCDG1325
DYEAR=1900
DGENRE=
TTITLE0=Commitment
TTITLE1=Perfect Love
TTITLE2=Come Some Rainy Day
TTITLE3=This Kiss
TTITLE4=To Have You Back Again
TTITLE5=One Of Those Nights Tonight
TTITLE6=Valentine
TTITLE7=I Wanna Fall In Love
TTITLE8=You're Still The One
TTITLE9=Commitment
TTITLE10=Perfect Love
TTITLE11=Come Some Rainy Day
TTITLE12=This Kiss
TTITLE13=To Have You Back Again
TTITLE14=One Of Those Nights Tonight
TTITLE15=Valentine
TTITLE16=I Wanna Fall In Love
TTITLE17=You're Still The One
EXTD=
EXTT0=
EXTT1=
EXTT2=
EXTT3=
EXTT4=
EXTT5=
EXTT6=
EXTT7=
EXTT8=
EXTT9=
EXTT10=
EXTT11=
EXTT12=
EXTT13=
EXTT14=
EXTT15=
EXTT16=
EXTT17=
PLAYORDER=
